<svg width="680" height="320" viewBox="0 0 680 320" xmlns="http://www.w3.org/2000/svg" role="img">
<title>메일 기반 요구사항 정리 자동화 파이프라인</title>
<desc>입력 메일이 REMI(GPT-4o mini, v1.3 프롬프트)를 거쳐 기능 요구사항, 비기능 요구사항, 미확인 사항 3가지로 분류되는 흐름과 선정 모델 및 환각 검증 결과를 보여주는 다이어그램</desc>
<defs>
<marker id="arrow" viewBox="0 0 10 10" refX="8" refY="5" markerWidth="6" markerHeight="6" orient="auto-start-reverse"><path d="M2 1L8 5L2 9" fill="none" stroke="#5F5E5A" stroke-width="1.5" stroke-linecap="round" stroke-linejoin="round"/></marker>
</defs>
<rect width="680" height="320" fill="#ffffff"/>

<g>
<rect x="40" y="40" width="160" height="56" rx="8" fill="#F1EFE8" stroke="#888780" stroke-width="0.5"/>
<text x="120" y="58" text-anchor="middle" dominant-baseline="central" font-family="sans-serif" font-size="14" font-weight="500" fill="#2C2C2A">입력 메일</text>
<text x="120" y="76" text-anchor="middle" dominant-baseline="central" font-family="sans-serif" font-size="12" fill="#5F5E5A">기획팀 / PM 요청</text>
</g>

<line x1="200" y1="68" x2="258" y2="68" stroke="#5F5E5A" stroke-width="1.5" marker-end="url(#arrow)"/>

<g>
<rect x="260" y="40" width="180" height="56" rx="8" fill="#EEEDFE" stroke="#534AB7" stroke-width="0.5"/>
<text x="350" y="58" text-anchor="middle" dominant-baseline="central" font-family="sans-serif" font-size="14" font-weight="500" fill="#26215C">REMI</text>
<text x="350" y="76" text-anchor="middle" dominant-baseline="central" font-family="sans-serif" font-size="12" fill="#3C3489">GPT-4o mini · v1.3 프롬프트</text>
</g>

<path d="M350 96 L350 115 L125 115 L125 168" fill="none" stroke="#5F5E5A" stroke-width="1.5" marker-end="url(#arrow)"/>
<path d="M350 96 L350 135 L315 135 L315 168" fill="none" stroke="#5F5E5A" stroke-width="1.5" marker-end="url(#arrow)"/>
<path d="M350 96 L350 155 L505 155 L505 168" fill="none" stroke="#5F5E5A" stroke-width="1.5" marker-end="url(#arrow)"/>

<g>
<rect x="40" y="170" width="170" height="56" rx="8" fill="#E1F5EE" stroke="#0F6E56" stroke-width="0.5"/>
<text x="125" y="188" text-anchor="middle" dominant-baseline="central" font-family="sans-serif" font-size="14" font-weight="500" fill="#04342C">기능 요구사항</text>
<text x="125" y="206" text-anchor="middle" dominant-baseline="central" font-family="sans-serif" font-size="12" fill="#085041">메일 원문 기준</text>
</g>

<g>
<rect x="230" y="170" width="170" height="56" rx="8" fill="#E6F1FB" stroke="#185FA5" stroke-width="0.5"/>
<text x="315" y="188" text-anchor="middle" dominant-baseline="central" font-family="sans-serif" font-size="14" font-weight="500" fill="#042C53">비기능 요구사항</text>
<text x="315" y="206" text-anchor="middle" dominant-baseline="central" font-family="sans-serif" font-size="12" fill="#0C447C">기한 · 성능 등</text>
</g>

<g>
<rect x="420" y="170" width="170" height="56" rx="8" fill="#FAEEDA" stroke="#854F0B" stroke-width="0.5"/>
<text x="505" y="188" text-anchor="middle" dominant-baseline="central" font-family="sans-serif" font-size="14" font-weight="500" fill="#412402">미확인 사항</text>
<text x="505" y="206" text-anchor="middle" dominant-baseline="central" font-family="sans-serif" font-size="12" fill="#633806">(확인 필요) 태그</text>
</g>

<line x1="40" y1="260" x2="590" y2="260" stroke="#D3D1C7" stroke-width="0.5"/>
<text x="40" y="280" font-family="sans-serif" font-size="12" fill="#5F5E5A">선정 모델: GPT-4o mini (평가 합계 25/25점, 3종 모델 중 1위)</text>
<text x="40" y="298" font-family="sans-serif" font-size="12" fill="#5F5E5A">환각 검증 5개 유형(임의추가·확정오류·범위초과·수치조작·문맥혼용) 전원 Pass — v1.3 기준</text>
</svg>
